<svg xmlns="http://www.w3.org/2000/svg" width="256" height="256"><path fill-opacity=".098" d="M0 128.004v128.004l128.25-.254 128.25-.254.254-127.75L257.008 0H0v128.004m.485.496c0 70.4.119 99.053.265 63.672.146-35.38.146-92.98 0-128C.604 29.153.485 58.1.485 128.5" fill="#1976D2" fill-rule="evenodd"/><path fill-opacity=".187" d="M0 128.011v126.997l128.25-.254 128.25-.254.254-127 .254-127-128.504.258L0 1.015v126.996M.485 128c0 70.125.119 98.813.265 63.75.146-35.062.146-92.437 0-127.5C.604 29.188.485 57.875.485 128m178.344-99.603c-3.67 1.295-7.988 3.292-9.597 4.438-4.907 3.494-10.323 10.129-13.097 16.045-2.298 4.9-2.635 6.903-2.635 15.641 0 9.3.236 10.5 3.274 16.672 4.073 8.274 11.968 15.764 19.979 18.955 8.374 3.335 24.222 3.291 32.747-.092 8.229-3.265 17.291-12.327 20.556-20.556 3.535-8.91 3.444-22.813-.199-30.5-3.124-6.589-8.756-13.28-13.924-16.543-10.623-6.705-25.116-8.291-37.104-4.06M13.36 31.75c.273.962 2.382 8.95 4.687 17.75s5.68 21.625 7.5 28.5c1.82 6.875 3.809 14.412 4.42 16.75l1.11 4.25h20.596l1.676-6.75c4.761-19.169 9.665-37.597 10.128-38.06.288-.288.697-.336.909-.107.212.23 2.823 10.317 5.802 22.417l5.416 22h10.365c10.184 0 10.378-.043 11.13-2.5.421-1.375 4.455-16.225 8.964-33 4.508-16.775 8.412-31.062 8.674-31.75.36-.943-1.743-1.25-8.563-1.25-7.765 0-9.105.247-9.504 1.75-.255.962-2.392 11.65-4.749 23.75-2.357 12.1-4.807 22.588-5.446 23.307-.902 1.016-1.892-1.766-4.444-12.5A4533.982 4533.982 0 0076.052 41.5l-2.696-11-9.068-.286-9.067-.286-.928 2.786c-.51 1.532-3.372 12.791-6.36 25.02-2.988 12.229-5.785 22.242-6.214 22.25-1.031.021-.801.986-6.268-26.234L30.682 30h-8.909c-8.006 0-8.858.177-8.413 1.75M183.5 43.4c-4.047 1.784-8.461 6.344-10.256 10.596-1.724 4.083-1.97 16.277-.407 20.202 1.924 4.832 8.089 10.705 12.478 11.887C201.896 90.55 214 81.518 214 64.681c0-10.693-3.222-16.664-11.21-20.773-4.398-2.262-14.694-2.533-19.29-.508m-25.753 112.35c-.733 1.479-.94 62.932-.235 69.52l.721 6.73 17.633-.024c9.699-.014 19.659-.475 22.134-1.026 5.369-1.194 13.864-4.671 15.564-6.371.669-.669 2.509-2.31 4.09-3.647 11.344-9.598 14.761-31.163 7.213-45.514-5.007-9.52-15.889-17.212-27.347-19.33-6.615-1.223-39.198-1.5-39.773-.338M31 193.5V231h18v-29h2.91c2.599 0 3.36.827 7.134 7.75 2.323 4.262 6.015 10.787 8.204 14.5l3.98 6.75H91.07l-1.191-2.25c-.655-1.238-4.496-7.712-8.535-14.387C77.305 207.687 74 201.971 74 201.66c0-.312 1.912-1.412 4.25-2.446 2.338-1.034 5.665-3.492 7.394-5.461 8.743-9.958 6.547-26.189-4.486-33.154-6.243-3.94-10.599-4.588-30.908-4.593L31 156v37.5M49 180v10h9.077c8.699 0 9.199-.122 12-2.923C72.369 184.784 73 183.258 73 180s-.631-4.784-2.923-7.077c-2.801-2.801-3.301-2.923-12-2.923H49v10m128.231 13.127l.269 22.373 7.998-.254c15.025-.478 22.366-6.539 23.262-19.209 1.142-16.143-6.012-23.847-23.029-24.795l-8.77-.488.27 22.373M133 252c0 .55.477 1 1.059 1s.781-.45.441-1-.816-1-1.059-1-.441.45-.441 1m119 0c-.901.582-1.025.975-.309.985.655.008 1.469-.435 1.809-.985.767-1.242.421-1.242-1.5 0" fill="#1976D2" fill-rule="evenodd"/><path fill-opacity=".428" d="M0 128.011v126.997l128.25-.254 128.25-.254.254-127 .254-127-128.504.258L0 1.015v126.996M.485 128c0 70.125.119 98.813.265 63.75.146-35.062.146-92.437 0-127.5C.604 29.188.485 57.875.485 128M3 64.008v61.007l60.75-.257 60.75-.258.258-60.75.257-60.75H3v61.008m129.242-.258l.258 60.75 60.75.258 60.75.257V3H131.985l.257 60.75m-128-.008L4.5 123.5h119V4.5l-59.758-.258-59.758-.258.258 59.758m129.22-58.5c-.264.692-.364 27.583-.222 59.758l.26 58.5h119V4.5l-59.278-.258c-46.891-.204-59.379.005-59.76 1m47.562 21.361C169.735 29.637 160.871 37.105 155.628 48c-2.862 5.948-3.128 7.35-3.128 16.5 0 8.313.388 10.844 2.297 15 3.613 7.866 7.154 12.355 13.11 16.62 16.329 11.693 40.344 10.167 54.147-3.442 21.709-21.402 11.891-58.469-17.514-66.126-7.343-1.912-16.283-1.893-23.516.051M12.482 30.027C12.189 30.504 26.036 84.15 29.254 95l1.334 4.5h21.776l5.554-21.714c3.054-11.943 5.84-21.393 6.19-21 .35.393 2.73 9.264 5.288 19.714 2.558 10.45 4.918 20.013 5.244 21.25.569 2.158 1.035 2.25 11.409 2.25 9.443 0 10.88-.222 11.319-1.75.277-.963 3.934-14.575 8.126-30.25 4.193-15.675 8.244-30.515 9.003-32.979.758-2.463 1.287-4.571 1.173-4.684-.395-.395-18.729-.611-19.105-.225-.207.213-2.504 10.738-5.104 23.388C87.23 74.09 85 82.036 85 76.527c0-1.03-1.81-9.332-4.023-18.45-2.213-9.117-4.545-18.827-5.183-21.577-.637-2.75-1.499-5.4-1.915-5.889-.703-.825-18.894-.93-19.71-.113-.416.415-7.3 27.343-9.715 38.002-1.892 8.35-2.374 9.914-2.894 9.393-.215-.216-2.524-10.968-5.131-23.893-2.606-12.925-4.851-23.645-4.988-23.821-.435-.559-18.618-.704-18.959-.152m171.837 14.074c-1.75.506-4.768 2.773-6.706 5.038-9.019 10.537-6.142 29.069 5.458 35.162 2.624 1.378 5.208 1.73 11.007 1.5 6.557-.26 8.087-.689 11.359-3.185 5.288-4.033 7.514-9.467 7.541-18.406.031-10.294-3.926-17.352-11.293-20.143-3.359-1.273-12.915-1.254-17.366.034M3.469 191c0 32.725.126 46.112.28 29.75.155-16.363.155-43.138 0-59.5-.154-16.363-.28-2.975-.28 29.75m120.169-57.5c.317.825.753 1.5.969 1.5.216 0 .393-.675.393-1.5s-.436-1.5-.969-1.5c-.532 0-.709.675-.393 1.5m8.604 59.25l.258 60.75h121l.258-60.75.257-60.75h-122.03l.257 60.75m-7.774 2.75c0 31.9.127 45.095.281 29.321.155-15.773.155-41.873.001-58-.155-16.126-.282-3.221-.282 28.679m-94.012-39.246c-.265.69-.363 17.902-.219 38.25L30.5 231.5h19l.277-14.25c.273-14.02.314-14.25 2.523-14.25 1.845 0 3.687 2.544 10.317 14.25l8.071 14.25 10.656.284c5.861.156 10.656.002 10.656-.342 0-.343-3.825-6.92-8.5-14.615-4.675-7.694-8.5-14.334-8.5-14.756 0-.422 1.838-1.596 4.085-2.609 8.446-3.809 13.835-13.733 12.55-23.111-1.375-10.025-9.116-18.002-19.668-20.265-7.392-1.585-40.89-1.45-41.511.168M50 180.103v10.102l8.587-.352c7.961-.327 8.762-.557 11-3.159 2.823-3.283 3.235-9.075.884-12.433-1.9-2.712-7.213-4.248-14.721-4.255L50 170v10.103M3.257 252c.358 1.312 7.867 1.502 59.826 1.512l59.417.012-58.946-.27c-45.561-.209-59.146-.552-59.826-1.512-.647-.913-.772-.844-.471.258" fill="#1976D2" fill-rule="evenodd"/><path fill-opacity=".832" d="M0 128.008V255l60.75-.238 60.75-.238-59.5-.512-59.5-.512v-122h123l.261 60.5c.241 56.124.136 60.591-1.451 61.757-1.38 1.013 11.283 1.207 65.239 1l66.951-.257.254-127 .254-127-128.504.258L0 1.015v126.993M.485 128c0 70.125.119 98.813.265 63.75.146-35.062.146-92.437 0-127.5C.604 29.188.485 57.875.485 128M2.459 3.25c-.263.688-.361 28.475-.218 61.75l.259 60.5 60.936.258c48.087.203 61.105-.008 61.735-1 .921-1.452 1.136-118.793.222-121.176C124.849 2.163 118.494 2 63.862 2 16.044 2 2.834 2.269 2.459 3.25m129.003-.008c-.264.692-.364 28.483-.221 61.758l.259 60.5h123V2.5l-61.278-.258c-48.492-.204-61.379.005-61.76 1m.212 128.417c-.96.961-.809 119.58.155 121.099.63.992 13.648 1.203 61.735 1l60.936-.258v-122l-61.076-.258c-33.591-.141-61.379.046-61.75.417M4.766 192.084c-.146 32.496-.078 59.271.151 59.5.229.229 26.891.416 59.25.416H123V133H5.031l-.265 59.084m25.472 1.052L30.5 232.5h19l.5-14.407c.441-12.713.705-14.436 2.244-14.66 1.276-.186 3.256 2.473 7.379 9.906 3.099 5.589 6.974 12.298 8.61 14.911l2.975 4.75h10.337c5.685 0 10.566-.371 10.846-.824.28-.453-3.293-7.163-7.941-14.911-4.647-7.748-8.45-14.534-8.45-15.079 0-.545 1.244-1.424 2.763-1.954 4.334-1.51 8.882-5.868 11.266-10.793 1.794-3.706 2.119-5.839 1.812-11.914-.509-10.092-3.622-14.661-13.291-19.512l-6.951-3.488-20.811-.376-20.811-.376.261 39.363M50 179.875V189h6.851c9.339 0 12.773-1.33 14.142-5.479.603-1.826.81-4.457.461-5.847-1.176-4.685-3.807-5.999-12.982-6.48L50 170.749v9.126" fill="#1976D2" fill-rule="evenodd"/></svg>